<?xml version="1.0" encoding="UTF-8" standalone="no"?>
<!-- Created with Inkscape (http://www.inkscape.org/) -->

<svg
   width="1920"
   height="1080"
   viewBox="0 0 1920 1080"
   version="1.1"
   id="svg1"
   inkscape:version="1.3 (0e150ed, 2023-07-21)"
   sodipodi:docname="wireframe.svg"
   xml:space="preserve"
   xmlns:inkscape="http://www.inkscape.org/namespaces/inkscape"
   xmlns:sodipodi="http://sodipodi.sourceforge.net/DTD/sodipodi-0.dtd"
   xmlns:xlink="http://www.w3.org/1999/xlink"
   xmlns="http://www.w3.org/2000/svg"
   xmlns:svg="http://www.w3.org/2000/svg"><sodipodi:namedview
     id="namedview1"
     pagecolor="#ffffff"
     bordercolor="#cccccc"
     borderopacity="1"
     inkscape:showpageshadow="0"
     inkscape:pageopacity="1"
     inkscape:pagecheckerboard="0"
     inkscape:deskcolor="#363636"
     inkscape:document-units="px"
     inkscape:zoom="1.2737069"
     inkscape:cx="278.32149"
     inkscape:cy="-27.871404"
     inkscape:window-width="1272"
     inkscape:window-height="785"
     inkscape:window-x="0"
     inkscape:window-y="0"
     inkscape:window-maximized="0"
     inkscape:current-layer="layer1" /><defs
     id="defs1"><rect
       x="171.56421"
       y="54.024929"
       width="1058.1031"
       height="145.97507"
       id="rect58" /><linearGradient
       id="linearGradient57"
       inkscape:collect="always"><stop
         style="stop-color:#43434c;stop-opacity:1;"
         offset="0"
         id="stop57" /><stop
         style="stop-color:#3c3c43;stop-opacity:1;"
         offset="1"
         id="stop58" /></linearGradient><rect
       x="45.552363"
       y="360.6118"
       width="71.432821"
       height="61.220417"
       id="rect52" /><filter
       style="color-interpolation-filters:sRGB;"
       inkscape:label="Invert"
       id="filter41"
       x="0"
       y="0"
       width="1"
       height="1"><feColorMatrix
         type="hueRotate"
         values="180"
         result="color1"
         id="feColorMatrix40" /><feColorMatrix
         values="-1 0 0 0 1 0 -1 0 0 1 0 0 -1 0 1 -0.21 -0.72 -0.07 2 0 "
         result="color2"
         id="feColorMatrix41" /></filter><rect
       x="45.552363"
       y="360.6118"
       width="71.432821"
       height="61.220417"
       id="rect53" /><rect
       x="45.552363"
       y="360.6118"
       width="71.432821"
       height="61.220417"
       id="rect54" /><linearGradient
       inkscape:collect="always"
       xlink:href="#linearGradient57"
       id="linearGradient58"
       x1="1920"
       y1="100"
       x2="0"
       y2="100"
       gradientUnits="userSpaceOnUse" /><rect
       x="171.56421"
       y="54.024929"
       width="1058.1031"
       height="145.97507"
       id="rect59" /><rect
       x="171.56421"
       y="54.024929"
       width="1058.1031"
       height="145.97507"
       id="rect60" /><rect
       x="171.56421"
       y="54.024929"
       width="1058.1031"
       height="145.97507"
       id="rect61" /><rect
       x="171.56421"
       y="54.024929"
       width="1058.1031"
       height="145.97507"
       id="rect63" /><rect
       x="171.56421"
       y="54.024929"
       width="1058.1031"
       height="145.97507"
       id="rect64" /><rect
       x="171.56421"
       y="54.024929"
       width="1058.1031"
       height="145.97507"
       id="rect65" /><rect
       x="171.56421"
       y="54.024929"
       width="1058.1031"
       height="145.97507"
       id="rect66" /><rect
       x="171.56421"
       y="54.024929"
       width="1058.1031"
       height="145.97507"
       id="rect67" /><rect
       x="171.56421"
       y="54.024929"
       width="1058.1031"
       height="145.97507"
       id="rect68" /><rect
       x="171.56421"
       y="54.024929"
       width="1058.1031"
       height="145.97507"
       id="rect74" /><rect
       x="171.56421"
       y="54.024929"
       width="1058.1031"
       height="145.97507"
       id="rect75" /><rect
       x="45.552363"
       y="360.6118"
       width="71.432821"
       height="61.220417"
       id="rect37" /><rect
       x="45.552363"
       y="360.6118"
       width="71.432821"
       height="61.220417"
       id="rect40" /></defs><g
     inkscape:label="Capa 1"
     inkscape:groupmode="layer"
     id="layer1"><rect
       style="opacity:1;fill:#f2efed;fill-opacity:1;stroke:none;stroke-width:27.8057;stroke-linecap:square;stroke-opacity:0.8"
       id="rect62"
       width="1920"
       height="886.64294"
       x="0"
       y="198" /><rect
       style="opacity:1;fill:#dedede;fill-opacity:1;stroke:none;stroke-width:0.366087;stroke-linecap:square;stroke-dasharray:none;stroke-opacity:1"
       id="rect72"
       width="310.76285"
       height="453.99002"
       x="102.564"
       y="293.34003"
       ry="2.128814" /><rect
       style="opacity:1;fill:#d1d2d4;fill-opacity:1;stroke:none;stroke-width:0.35339;stroke-linecap:square;stroke-dasharray:none;stroke-opacity:1"
       id="rect71"
       width="616.46716"
       height="213.2596"
       x="1059.9093"
       y="536.69165"
       ry="1" /><rect
       style="opacity:1;fill:#d1d2d4;fill-opacity:1;stroke:none;stroke-width:0.334395;stroke-linecap:square;stroke-dasharray:none;stroke-opacity:1"
       id="rect70"
       width="551.97589"
       height="213.2596"
       x="442.30298"
       y="534.07043"
       ry="1" /><rect
       style="opacity:1;fill:#d1d2d4;fill-opacity:1;stroke:none;stroke-width:0.5;stroke-linecap:square;stroke-dasharray:none;stroke-opacity:1"
       id="rect69"
       width="1234.0735"
       height="213.2596"
       x="442.30298"
       y="293.34003"
       ry="1" /><rect
       style="opacity:1;fill:url(#linearGradient58);fill-opacity:1;stroke-width:13.2061;stroke-linecap:square;stroke-opacity:0.8;stroke:none"
       id="rect36"
       width="1920"
       height="200"
       x="0"
       y="0" /><rect
       style="opacity:1;fill:#5c5e84;fill-opacity:1;stroke-width:1.40958;stroke-linecap:square;stroke-opacity:0.8"
       id="rect1"
       width="150"
       height="150"
       x="-927.21027"
       y="1105.0081" /><rect
       style="opacity:1;fill:#7f81a8;fill-opacity:1;stroke-width:1.40958;stroke-linecap:square;stroke-opacity:0.8"
       id="rect2"
       width="150"
       height="150"
       x="-927.21027"
       y="1265.01" /><rect
       style="opacity:1;fill:#a4a3cb;fill-opacity:1;stroke-width:1.40958;stroke-linecap:square;stroke-opacity:0.8"
       id="rect3"
       width="150"
       height="150"
       x="-927.21027"
       y="1425.0121" /><rect
       style="opacity:1;fill:#39475c;fill-opacity:1;stroke-width:1.40958;stroke-linecap:square;stroke-opacity:0.8"
       id="rect4"
       width="150"
       height="150"
       x="-927.21027"
       y="785.00409" /><rect
       style="opacity:1;fill:#33251b;fill-opacity:1;stroke-width:1.40958;stroke-linecap:square;stroke-opacity:0.8"
       id="rect5"
       width="150"
       height="150"
       x="-1396.5109"
       y="144.996" /><rect
       style="opacity:1;fill:#515e6f;fill-opacity:1;stroke-width:1.40958;stroke-linecap:square;stroke-opacity:0.8"
       id="rect6"
       width="150"
       height="150"
       x="-927.21027"
       y="945.00604" /><rect
       style="opacity:1;fill:#59493e;fill-opacity:1;stroke-width:1.40958;stroke-linecap:square;stroke-opacity:0.8"
       id="rect7"
       width="150"
       height="150"
       x="-1396.5109"
       y="294.996" /><rect
       style="opacity:1;fill:#c9b5a8;fill-opacity:1;stroke-width:1.40958;stroke-linecap:square;stroke-opacity:0.8"
       id="rect11"
       width="150"
       height="150"
       x="-1396.5109"
       y="775.00208" /><rect
       style="opacity:1;fill:#7e6d61;fill-opacity:1;stroke-width:1.40958;stroke-linecap:square;stroke-opacity:0.8"
       id="rect12"
       width="150"
       height="150"
       x="-1396.5109"
       y="454.99792" /><rect
       style="opacity:1;fill:#a49184;fill-opacity:1;stroke-width:1.40958;stroke-linecap:square;stroke-opacity:0.8"
       id="rect13"
       width="150"
       height="150"
       x="-1396.5109"
       y="615" /><rect
       style="opacity:1;fill:#d1d8e0;fill-opacity:1;stroke-width:1.40958;stroke-linecap:square;stroke-opacity:0.8"
       id="rect14"
       width="150"
       height="150"
       x="-927.21027"
       y="1585.0142" /><rect
       style="opacity:1;fill:#ffffff;fill-opacity:1;stroke-width:1.40958;stroke-linecap:square;stroke-opacity:0.8"
       id="rect17"
       width="150"
       height="150"
       x="-1152.1732"
       y="2074" /><rect
       style="opacity:1;fill:#efebea;fill-opacity:1;stroke-width:1.40958;stroke-linecap:square;stroke-opacity:0.8"
       id="rect18"
       width="150"
       height="150"
       x="-1152.1732"
       y="1911.7238" /><rect
       style="opacity:1;fill:#dcd7d3;fill-opacity:1;stroke-width:1.40958;stroke-linecap:square;stroke-opacity:0.8"
       id="rect19"
       width="150"
       height="150"
       x="-1152.1732"
       y="1749.4475" /><rect
       style="opacity:1;fill:#cbc3c0;fill-opacity:1;stroke-width:1.40958;stroke-linecap:square;stroke-opacity:0.8"
       id="rect20"
       width="150"
       height="150"
       x="-1152.1732"
       y="1585.0142" /><rect
       style="opacity:1;fill:#baafa9;fill-opacity:1;stroke-width:1.40958;stroke-linecap:square;stroke-opacity:0.8"
       id="rect21"
       width="150"
       height="150"
       x="-1152.1732"
       y="1425.012" /><rect
       style="opacity:1;fill:#ffecd1;fill-opacity:1;stroke-width:1.40958;stroke-linecap:square;stroke-opacity:0.8"
       id="rect22"
       width="150"
       height="150"
       x="-1396.5109"
       y="935.00409" /><rect
       style="opacity:1;fill:#181413;fill-opacity:1;stroke-width:1.40958;stroke-linecap:square;stroke-opacity:0.8"
       id="rect23"
       width="150"
       height="150"
       x="-636.23517"
       y="69.996002" /><rect
       style="opacity:1;fill:#4c4d4f;fill-opacity:1;stroke-width:1.40958;stroke-linecap:square;stroke-opacity:0.8"
       id="rect24"
       width="150"
       height="150"
       x="-636.23517"
       y="219.996" /><rect
       style="opacity:1;fill:#d1d2d4;fill-opacity:1;stroke-width:1.40958;stroke-linecap:square;stroke-opacity:0.8"
       id="rect25"
       width="150"
       height="150"
       x="-636.23517"
       y="700.00208" /><rect
       style="opacity:1;fill:#64606c;fill-opacity:1;stroke-width:1.40958;stroke-linecap:square;stroke-opacity:0.8"
       id="rect26"
       width="150"
       height="150"
       x="-636.23517"
       y="379.99792" /><rect
       style="opacity:1;fill:#adacb0;fill-opacity:1;stroke-width:1.40958;stroke-linecap:square;stroke-opacity:0.8"
       id="rect27"
       width="150"
       height="150"
       x="-636.23517"
       y="540" /><rect
       style="opacity:1;fill:#e7e5d9;fill-opacity:1;stroke-width:1.40958;stroke-linecap:square;stroke-opacity:0.8"
       id="rect28"
       width="150"
       height="150"
       x="-636.23517"
       y="860.00409" /><rect
       style="opacity:1;fill:#939da9;fill-opacity:1;stroke-width:1.40958;stroke-linecap:square;stroke-opacity:0.8"
       id="rect29"
       width="150"
       height="150"
       x="-419.84665"
       y="59.993896" /><rect
       style="opacity:1;fill:#cfd9e3;fill-opacity:1;stroke-width:1.40958;stroke-linecap:square;stroke-opacity:0.8"
       id="rect30"
       width="150"
       height="150"
       x="-419.84665"
       y="219.99585" /><rect
       style="opacity:1;fill:#b88d87;fill-opacity:1;stroke-width:1.40958;stroke-linecap:square;stroke-opacity:0.8"
       id="rect31"
       width="150"
       height="150"
       x="-419.84665"
       y="700.00208" /><rect
       style="opacity:1;fill:#757279;fill-opacity:1;stroke-width:1.40958;stroke-linecap:square;stroke-opacity:0.8"
       id="rect32"
       width="150"
       height="150"
       x="-419.84665"
       y="379.99792" /><rect
       style="opacity:1;fill:#86727b;fill-opacity:1;stroke-width:1.40958;stroke-linecap:square;stroke-opacity:0.8"
       id="rect33"
       width="150"
       height="150"
       x="-419.84665"
       y="540" /><rect
       style="opacity:1;fill:#c6b9a6;fill-opacity:1;stroke-width:1.40958;stroke-linecap:square;stroke-opacity:0.8"
       id="rect34"
       width="150"
       height="150"
       x="-419.84665"
       y="860.00409" /><rect
       style="opacity:1;fill:#364049;fill-opacity:1;stroke-width:13.2061;stroke-linecap:square;stroke-opacity:0.8"
       id="rect35"
       width="1920"
       height="200"
       x="110.76601"
       y="-649.51715" /><g
       id="g58"
       transform="translate(-1.0296143,-5.4235344)"
       inkscape:export-filename="img/icons/portafolio.png"
       inkscape:export-xdpi="97"
       inkscape:export-ydpi="97"><rect
         style="opacity:1;fill:#ffdfb3;fill-opacity:1;stroke:none;stroke-width:4.29298;stroke-linecap:square;stroke-opacity:1"
         id="rect51"
         width="11.999998"
         height="102.09007"
         x="119.70169"
         y="54.024929"
         ry="0.89340681" /><rect
         style="opacity:1;fill:#4b4b4e;fill-opacity:1;stroke:none;stroke-width:12.9957;stroke-linecap:square;stroke-opacity:1"
         id="rect50"
         width="98.245949"
         height="114.27052"
         x="27.455742"
         y="48.288273"
         ry="1" /><text
         xml:space="preserve"
         id="text51"
         style="font-style:normal;font-variant:normal;font-weight:normal;font-stretch:normal;font-size:13.3333px;line-height:1.15;font-family:'Neutra Text TF';-inkscape-font-specification:'Neutra Text TF';letter-spacing:0px;word-spacing:0px;white-space:pre;shape-inside:url(#rect52);display:inline;opacity:1;fill:#fff4e5;fill-opacity:1;stroke:none;stroke-width:0.200025;stroke-dasharray:none"
         transform="matrix(2.0245078,0,0,2.0394108,-58.697532,-665.59003)"><tspan
           x="45.552734"
           y="371.98167"
           id="tspan37">PORTA&#10;</tspan><tspan
           x="45.552734"
           y="387.31495"
           id="tspan38">FOLIO</tspan></text></g><text
       xml:space="preserve"
       id="text58"
       style="font-style:normal;font-variant:normal;font-weight:normal;font-stretch:normal;font-size:23.6529px;line-height:1.75;font-family:Montserrat;-inkscape-font-specification:Montserrat;letter-spacing:1.22258px;word-spacing:0px;white-space:pre;shape-inside:url(#rect58);display:inline;fill:#f0e7db;fill-opacity:1"
       transform="matrix(2.536688,0,0,2.536688,-260.08246,-55.84341)"><tspan
         x="171.56445"
         y="81.677844"
         id="tspan39">DESARROLLADOR WEB</tspan></text><text
       xml:space="preserve"
       id="text59"
       style="font-style:normal;font-variant:normal;font-weight:normal;font-stretch:normal;font-size:21.0248px;line-height:1.75;font-family:Quicksand;-inkscape-font-specification:Quicksand;letter-spacing:1.22258px;word-spacing:0px;white-space:pre;shape-inside:url(#rect59);display:inline;fill:#bfbfbf;fill-opacity:1"
       transform="matrix(2.536688,0,0,2.536688,-252.04921,-112.63085)"><tspan
         x="171.56445"
         y="78.72953"
         id="tspan41"><tspan
           style="font-family:Montserrat;-inkscape-font-specification:Montserrat"
           id="tspan40">Saig Matias</tspan></tspan></text><text
       xml:space="preserve"
       id="text60"
       style="font-style:normal;font-variant:normal;font-weight:normal;font-stretch:normal;font-size:10.5124px;line-height:1.15;font-family:Quicksand;-inkscape-font-specification:Quicksand;letter-spacing:1.22258px;word-spacing:0px;white-space:pre;shape-inside:url(#rect60);display:inline;fill:#64606c;fill-opacity:1"
       transform="matrix(2.536688,0,0,2.536688,1047.9375,233.71317)"><tspan
         x="171.56445"
         y="63.22374"
         id="tspan43"><tspan
           style="font-family:Montserrat;-inkscape-font-specification:Montserrat"
           id="tspan42">email&#10;</tspan></tspan><tspan
         x="171.56445"
         y="75.375092"
         id="tspan45"><tspan
           style="font-family:Montserrat;-inkscape-font-specification:Montserrat"
           id="tspan44">github&#10;</tspan></tspan><tspan
         x="171.56445"
         y="87.526444"
         id="tspan47"><tspan
           style="font-family:Montserrat;-inkscape-font-specification:Montserrat"
           id="tspan46">whatsapp&#10;</tspan></tspan><tspan
         x="171.56445"
         y="99.677796"
         id="tspan49"><tspan
           style="font-family:Montserrat;-inkscape-font-specification:Montserrat"
           id="tspan48">linkedin</tspan></tspan></text><text
       xml:space="preserve"
       id="text61"
       style="font-style:normal;font-variant:normal;font-weight:600;font-stretch:normal;font-size:15.7686px;line-height:1.15;font-family:Montserrat;-inkscape-font-specification:'Montserrat Semi-Bold';letter-spacing:1.22258px;word-spacing:0px;white-space:pre;shape-inside:url(#rect61);display:inline;fill:#adacb0;fill-opacity:1"
       transform="matrix(2.536688,0,0,2.536688,659.71029,-84.149321)"><tspan
         x="171.56445"
         y="67.729779"
         id="tspan50">acerca&#10;</tspan><tspan
         x="171.56445"
         y="85.863667"
         id="tspan51">de mi</tspan></text><text
       xml:space="preserve"
       id="text62"
       style="font-style:normal;font-variant:normal;font-weight:normal;font-stretch:normal;font-size:21.0248px;line-height:1.75;font-family:Quicksand;-inkscape-font-specification:Quicksand;letter-spacing:1.22258px;word-spacing:0px;white-space:pre;shape-inside:url(#rect63);display:inline;fill:#4c4d4f;fill-opacity:1"
       transform="matrix(2.536688,0,0,2.536688,125.75759,661.56032)"><tspan
         x="171.56445"
         y="78.72953"
         id="tspan53"><tspan
           style="font-family:Montserrat;-inkscape-font-specification:Montserrat"
           id="tspan52">PROYECTOS PRINCIPALES</tspan></tspan></text><text
       xml:space="preserve"
       id="text63"
       style="font-style:normal;font-variant:normal;font-weight:normal;font-stretch:normal;font-size:21.0248px;line-height:1.75;font-family:Quicksand;-inkscape-font-specification:Quicksand;letter-spacing:1.22258px;word-spacing:0px;white-space:pre;shape-inside:url(#rect64);display:inline;fill:#778492;fill-opacity:1"
       transform="matrix(2.536688,0,0,2.536688,103.295,830.93029)"><tspan
         x="171.56445"
         y="78.72953"
         id="tspan55"><tspan
           style="font-family:Montserrat;-inkscape-font-specification:Montserrat"
           id="tspan54">PROYECTOS SECUNDARIOS</tspan></tspan></text><text
       xml:space="preserve"
       id="text64"
       style="font-style:normal;font-variant:normal;font-weight:normal;font-stretch:normal;font-size:21.0248px;line-height:1.75;font-family:Quicksand;-inkscape-font-specification:Quicksand;letter-spacing:1.22258px;word-spacing:0px;white-space:pre;shape-inside:url(#rect65);display:inline;fill:#4c4d4f;fill-opacity:1"
       transform="matrix(2.536688,0,0,2.536688,-297.97324,198.45636)"><tspan
         x="171.56445"
         y="78.72953"
         id="tspan57"><tspan
           style="font-family:Montserrat;-inkscape-font-specification:Montserrat"
           id="tspan56">ACERCA&#10;</tspan></tspan><tspan
         x="171.56445"
         y="115.64711"
         id="tspan59"><tspan
           style="font-family:Montserrat;-inkscape-font-specification:Montserrat"
           id="tspan58">DE MI</tspan></tspan></text><text
       xml:space="preserve"
       id="text65"
       style="font-style:normal;font-variant:normal;font-weight:normal;font-stretch:normal;font-size:15.7686px;line-height:1;font-family:Lato;-inkscape-font-specification:Lato;letter-spacing:1.22258px;word-spacing:0px;white-space:pre;shape-inside:url(#rect66);display:inline;fill:#4c4d4f;fill-opacity:1"
       transform="matrix(2.536688,0,0,2.536688,80.536703,180.78354)"><tspan
         x="171.56445"
         y="66.719114"
         id="tspan60">descr&#10;</tspan><tspan
         x="171.56445"
         y="82.487714"
         id="tspan61">&#10;</tspan><tspan
         x="171.56445"
         y="98.256315"
         id="tspan62">Redes sociales</tspan></text><text
       xml:space="preserve"
       id="text66"
       style="font-style:normal;font-variant:normal;font-weight:normal;font-stretch:normal;font-size:15.7686px;line-height:1.75;font-family:Quicksand;-inkscape-font-specification:Quicksand;letter-spacing:1.22258px;word-spacing:0px;white-space:pre;shape-inside:url(#rect67);display:inline;fill:#4c4d4f;fill-opacity:1"
       transform="matrix(2.536688,0,0,2.536688,86.426086,425.41941)"><tspan
         x="171.56445"
         y="72.553496"
         id="tspan64"><tspan
           style="font-family:Montserrat;-inkscape-font-specification:Montserrat"
           id="tspan63">skills</tspan></tspan></text><text
       xml:space="preserve"
       id="text67"
       style="font-style:normal;font-variant:normal;font-weight:normal;font-stretch:normal;font-size:15.7686px;line-height:1.75;font-family:Quicksand;-inkscape-font-specification:Quicksand;letter-spacing:1.22258px;word-spacing:0px;white-space:pre;shape-inside:url(#rect68);display:inline;fill:#4c4d4f;fill-opacity:1"
       transform="matrix(2.536688,0,0,2.536688,915.32011,445.77408)"><tspan
         x="171.56445"
         y="72.553496"
         id="tspan66"><tspan
           style="font-family:Montserrat;-inkscape-font-specification:Montserrat"
           id="tspan65">software</tspan></tspan></text><rect
       style="opacity:1;fill:#dedede;fill-opacity:1;stroke:none;stroke-width:0.319695;stroke-linecap:square;stroke-dasharray:none;stroke-opacity:1"
       id="rect73"
       width="1600.8274"
       height="10"
       x="95.549103"
       y="869.59259"
       ry="0.40881851" /><text
       xml:space="preserve"
       id="text73"
       style="font-style:normal;font-variant:normal;font-weight:bold;font-stretch:normal;font-size:15.7686px;line-height:1.15;font-family:Cantarell;-inkscape-font-specification:'Cantarell Bold';letter-spacing:1.22258px;word-spacing:0px;white-space:pre;shape-inside:url(#rect74);display:inline;fill:#adacb0;fill-opacity:1"
       transform="matrix(2.536688,0,0,2.536688,895.65048,-84.68558)"><tspan
         x="171.56445"
         y="67.397362"
         id="tspan67">Proyectos&#10;</tspan><tspan
         x="171.56445"
         y="85.53125"
         id="tspan68">principal</tspan></text><text
       xml:space="preserve"
       id="text74"
       style="font-style:normal;font-variant:normal;font-weight:bold;font-stretch:normal;font-size:15.7686px;line-height:1.15;font-family:Lato;-inkscape-font-specification:'Lato Bold';letter-spacing:1.22258px;word-spacing:0px;white-space:pre;shape-inside:url(#rect75);display:inline;fill:#adacb0;fill-opacity:1"
       transform="matrix(2.536688,0,0,2.536688,1190.9546,-80.945578)"><tspan
         x="171.56445"
         y="67.901759"
         id="tspan69">Proyectos&#10;</tspan><tspan
         x="171.56445"
         y="86.035647"
         id="tspan70">secundarios</tspan></text><rect
       style="opacity:1;fill:#f2efed;fill-opacity:1;stroke:none;stroke-width:3.91973;stroke-linecap:square;stroke-opacity:0.8"
       id="rect76"
       width="190.9109"
       height="177.20035"
       x="353.66959"
       y="1242.5856" /><rect
       style="opacity:1;fill:#dedede;fill-opacity:1;stroke:none;stroke-width:0.186794;stroke-linecap:square;stroke-dasharray:none;stroke-opacity:1"
       id="rect77"
       width="207.28499"
       height="177.20035"
       x="582.68707"
       y="1242.5856"
       ry="0.83091378" /><rect
       style="opacity:1;fill:#d1d2d4;fill-opacity:1;stroke:none;stroke-width:0.181634;stroke-linecap:square;stroke-dasharray:none;stroke-opacity:1"
       id="rect78"
       width="195.99321"
       height="177.20035"
       x="828.07861"
       y="1242.5856"
       ry="0.83091384" /><rect
       style="fill:#ffffff;fill-opacity:1;stroke:none;stroke-width:4.29298;stroke-linecap:square;stroke-opacity:1"
       id="rect8"
       width="11.999998"
       height="102.09007"
       x="170.79504"
       y="-129.34219"
       ry="0.89340681" /><rect
       style="fill:#4b4b4e;fill-opacity:1;stroke:none;stroke-width:12.9957;stroke-linecap:square;stroke-opacity:1"
       id="rect9"
       width="98.245949"
       height="114.27052"
       x="78.549103"
       y="-135.07886"
       ry="1" /><text
       xml:space="preserve"
       id="text36"
       style="font-style:normal;font-variant:normal;font-weight:normal;font-stretch:normal;font-size:13.3333px;line-height:1.15;font-family:'Neutra Text TF';-inkscape-font-specification:'Neutra Text TF';letter-spacing:0px;word-spacing:0px;white-space:pre;shape-inside:url(#rect37);display:inline;fill:#ffffff;fill-opacity:1;stroke:none;stroke-width:0.200025;stroke-dasharray:none"
       transform="matrix(2.0245078,0,0,2.0394108,-7.604173,-848.95716)"><tspan
         x="45.552734"
         y="371.98167"
         id="tspan71">PORTA&#10;</tspan><tspan
         x="45.552734"
         y="387.31495"
         id="tspan72">FOLIO</tspan></text><rect
       style="fill:#ffffff;fill-opacity:1;stroke:none;stroke-width:4.29298;stroke-linecap:square;stroke-opacity:1"
       id="rect38"
       width="11.999998"
       height="102.09007"
       x="309.58453"
       y="-123.69575"
       ry="0.89340681" /><path
       id="rect39"
       style="fill:#4b4b4e;fill-opacity:1;stroke:none;stroke-width:12.9957;stroke-linecap:square;stroke-opacity:1"
       d="M 218.33789 -129.43164 C 217.78389 -129.43164 217.33789 -128.98564 217.33789 -128.43164 L 217.33789 -16.162109 C 217.33789 -15.60811 217.78389 -15.162109 218.33789 -15.162109 L 314.58398 -15.162109 C 315.13798 -15.162109 315.58398 -15.60811 315.58398 -16.162109 L 315.58398 -128.43164 C 315.58398 -128.98564 315.13798 -129.43164 314.58398 -129.43164 L 218.33789 -129.43164 z M 250.23828 -103.42188 C 255.47499 -103.42188 259.68555 -99.451626 259.68555 -93.931641 C 259.68555 -88.411655 255.47499 -84.443359 250.23828 -84.443359 C 244.97458 -84.443359 240.76367 -88.411655 240.76367 -93.931641 C 240.76367 -99.451626 244.97458 -103.42188 250.23828 -103.42188 z M 298.93359 -103.36914 L 299.25781 -103.36914 L 307.30273 -84.6875 L 304.33398 -84.6875 L 303.28125 -87.296875 L 294.88477 -87.296875 L 293.83203 -84.6875 L 291.08008 -84.6875 L 298.93359 -103.36914 z M 225.62109 -103.17773 L 230.23633 -103.17773 C 235.31108 -103.17773 238.11914 -100.43111 238.11914 -96.134766 C 238.11914 -91.865614 235.28408 -89.091797 230.23633 -89.091797 L 228.48242 -89.091797 L 228.48242 -84.6875 L 225.62109 -84.6875 L 225.62109 -103.17773 z M 263.27539 -103.17773 L 267.86523 -103.17773 C 272.93998 -103.17773 275.77344 -100.51344 275.77344 -96.271484 C 275.77344 -93.416319 274.50592 -91.458927 272.10352 -90.398438 L 275.99023 -84.6875 L 272.69727 -84.6875 L 269.4043 -89.554688 C 268.89142 -89.500303 268.37811 -89.445312 267.86523 -89.445312 L 266.13672 -89.445312 L 266.13672 -84.6875 L 263.27539 -84.6875 L 263.27539 -103.17773 z M 277.98828 -103.17773 L 291.72656 -103.17773 L 291.72656 -100.64844 L 286.27539 -100.64844 L 286.27539 -84.6875 L 283.43945 -84.6875 L 283.43945 -100.64844 L 277.98828 -100.64844 L 277.98828 -103.17773 z M 250.23828 -100.83984 C 246.40523 -100.83984 243.67969 -97.874488 243.67969 -93.931641 C 243.67969 -89.988794 246.40523 -87.025391 250.23828 -87.025391 C 254.07134 -87.025391 256.77148 -89.988794 256.77148 -93.931641 C 256.77148 -97.874488 254.07134 -100.83984 250.23828 -100.83984 z M 228.48242 -100.64844 L 228.48242 -91.621094 L 230.12891 -91.621094 C 233.74601 -91.621094 235.20312 -93.333985 235.20312 -96.134766 C 235.20312 -98.935547 233.71902 -100.64844 230.12891 -100.64844 L 228.48242 -100.64844 z M 266.13672 -100.64844 L 266.13672 -91.919922 L 267.75781 -91.919922 C 271.40191 -91.919922 272.85938 -93.525088 272.85938 -96.271484 C 272.85938 -99.045073 271.34793 -100.64844 267.75781 -100.64844 L 266.13672 -100.64844 z M 299.04297 -98.228516 C 299.04297 -98.228516 298.61123 -96.570104 298.15234 -95.482422 L 295.85742 -89.71875 L 302.25391 -89.71875 L 299.96094 -95.482422 C 299.50205 -96.570104 299.04297 -98.228516 299.04297 -98.228516 z M 249.10547 -72.152344 C 254.34218 -72.152344 258.55273 -68.182095 258.55273 -62.662109 C 258.55273 -57.142124 254.34218 -53.171875 249.10547 -53.171875 C 243.84177 -53.171875 239.63086 -57.142124 239.63086 -62.662109 C 239.63086 -68.182095 243.84177 -72.152344 249.10547 -72.152344 z M 292.91406 -72.152344 C 298.15077 -72.152344 302.36328 -68.182095 302.36328 -62.662109 C 302.36328 -57.142124 298.15077 -53.171875 292.91406 -53.171875 C 287.65036 -53.171875 283.43945 -57.142124 283.43945 -62.662109 C 283.43945 -68.182095 287.65036 -72.152344 292.91406 -72.152344 z M 225.62109 -71.90625 L 237.03906 -71.90625 L 237.03906 -69.378906 L 228.48242 -69.378906 L 228.48242 -61.955078 L 236.25586 -61.955078 L 236.25586 -59.398438 L 228.48242 -59.398438 L 228.48242 -53.416016 L 225.62109 -53.416016 L 225.62109 -71.90625 z M 262.14258 -71.90625 L 265.00391 -71.90625 L 265.00391 -55.945312 L 273.48047 -55.945312 L 273.48047 -53.416016 L 262.14258 -53.416016 L 262.14258 -71.90625 z M 276.93555 -71.90625 L 279.76953 -71.90625 L 279.76953 -53.416016 L 276.93555 -53.416016 L 276.93555 -71.90625 z M 249.10547 -69.568359 C 245.27241 -69.568359 242.54492 -66.604956 242.54492 -62.662109 C 242.54492 -58.719262 245.27241 -55.755859 249.10547 -55.755859 C 252.93852 -55.755859 255.63672 -58.719262 255.63672 -62.662109 C 255.63672 -66.604956 252.93852 -69.568359 249.10547 -69.568359 z M 292.91406 -69.568359 C 289.08101 -69.568359 286.35547 -66.604956 286.35547 -62.662109 C 286.35547 -58.719262 289.08101 -55.755859 292.91406 -55.755859 C 296.74712 -55.755859 299.44727 -58.719262 299.44727 -62.662109 C 299.44727 -66.604956 296.74712 -69.568359 292.91406 -69.568359 z " /><rect
       style="fill:#848489;fill-opacity:1;stroke:none;stroke-width:4.29298;stroke-linecap:square;stroke-opacity:1"
       id="rect41"
       width="11.999998"
       height="102.09007"
       x="436.67929"
       y="-126.7369"
       ry="0.89340681" /><path
       id="path41"
       style="fill:#ffffff;fill-opacity:1;stroke:none;stroke-width:12.9957;stroke-linecap:square;stroke-opacity:1"
       d="m 345.43266,-132.47279 c -0.554,0 -1,0.446 -1,1 v 112.26953 c 0,0.553999 0.446,1 1,1 h 96.24609 c 0.554,0 1,-0.446001 1,-1 v -112.26953 c 0,-0.554 -0.446,-1 -1,-1 z m 31.90039,26.00976 c 5.23671,0 9.44727,3.97025 9.44727,9.490238 0,5.519986 -4.21056,9.488282 -9.44727,9.488282 -5.2637,0 -9.47461,-3.968296 -9.47461,-9.488282 0,-5.519988 4.21091,-9.490238 9.47461,-9.490238 z m 48.69531,0.0527 h 0.32422 l 8.04492,18.681639 h -2.96875 l -1.05273,-2.609375 h -8.39648 l -1.05274,2.609375 h -2.75195 z m -73.3125,0.19141 h 4.61524 c 5.07475,0 7.88281,2.74662 7.88281,7.042963 0,4.269152 -2.83506,7.042969 -7.88281,7.042969 h -1.75391 v 4.404297 h -2.86133 z m 37.6543,0 H 394.96 c 5.07475,0 7.90821,2.66429 7.90821,6.906245 0,2.855165 -1.26752,4.812557 -3.66992,5.873046 l 3.88671,5.710938 h -3.29296 l -3.29297,-4.867188 c -0.51288,0.05438 -1.02619,0.109376 -1.53907,0.109376 h -1.72851 v 4.757812 h -2.86133 z m 14.71289,0 h 13.73828 v 2.52929 h -5.45117 v 15.960939 h -2.83594 v -15.960939 h -5.45117 z m -27.75,2.33789 c -3.83305,0 -6.55859,2.96535 -6.55859,6.908198 0,3.942847 2.72554,6.90625 6.55859,6.90625 3.83306,0 6.5332,-2.963403 6.5332,-6.90625 0,-3.942848 -2.70014,-6.908198 -6.5332,-6.908198 z m -21.75586,0.1914 v 9.027345 h 1.64649 c 3.6171,0 5.07421,-1.712891 5.07421,-4.513672 0,-2.800783 -1.4841,-4.513673 -5.07421,-4.513673 z m 37.6543,0 v 8.728517 h 1.62109 c 3.6441,0 5.10157,-1.605166 5.10157,-4.351562 0,-2.773585 -1.51145,-4.376955 -5.10157,-4.376955 z m 32.90625,2.41992 c 0,0 -0.43174,1.658415 -0.89063,2.746097 l -2.29492,5.763672 h 6.39649 l -2.29297,-5.763672 c -0.45889,-1.087682 -0.91797,-2.746097 -0.91797,-2.746097 z m -49.9375,26.076175 c 5.23671,0 9.44726,3.970249 9.44726,9.490235 0,5.519985 -4.21055,9.490234 -9.44726,9.490234 -5.2637,0 -9.47461,-3.970249 -9.47461,-9.490234 0,-5.519986 4.21091,-9.490235 9.47461,-9.490235 z m 43.80859,0 c 5.23671,0 9.44922,3.970249 9.44922,9.490235 0,5.519985 -4.21251,9.490234 -9.44922,9.490234 -5.2637,0 -9.47461,-3.970249 -9.47461,-9.490234 0,-5.519986 4.21091,-9.490235 9.47461,-9.490235 z m -67.29297,0.246094 h 11.41797 v 2.527344 h -8.55664 v 7.423828 h 7.77344 v 2.55664 h -7.77344 v 5.982422 h -2.86133 z m 36.52149,0 h 2.86133 v 15.960938 h 8.47656 v 2.529296 h -11.33789 z m 14.79297,0 h 2.83398 v 18.490234 h -2.83398 z m -27.83008,2.337891 c -3.83306,0 -6.56055,2.963403 -6.56055,6.90625 0,3.942847 2.72749,6.90625 6.56055,6.90625 3.83305,0 6.53125,-2.963403 6.53125,-6.90625 0,-3.942847 -2.6982,-6.90625 -6.53125,-6.90625 z m 43.80859,0 c -3.83305,0 -6.55859,2.963403 -6.55859,6.90625 0,3.942847 2.72554,6.90625 6.55859,6.90625 3.83306,0 6.53321,-2.963403 6.53321,-6.90625 0,-3.942847 -2.70015,-6.90625 -6.53321,-6.90625 z" /></g></svg>
